<?xml version="1.0" encoding="utf-8"?>
<!-- Generator: Adobe Illustrator 19.2.1, SVG Export Plug-In . SVG Version: 6.00 Build 0)  -->
<svg version="1.0" id="Layer_1" xmlns="http://www.w3.org/2000/svg" xmlns:xlink="http://www.w3.org/1999/xlink" x="0px" y="0px"
	 viewBox="0 0 10 10" style="enable-background:new 0 0 10 10;" xml:space="preserve">
<style type="text/css">
	.st0{fill-rule:evenodd;clip-rule:evenodd;fill:#B5C0C8;}
</style>
<g>
	<g>
		<path class="st0" d="M5,0C2,0,0,2,0,5c0,3,2,5,5,5c3,0,5-2,5-5C10,2,8,0,5,0z M5,8.8C3,8.8,1.2,7,1.2,5C1.2,3,3,1.2,5,1.2
			S8.8,3,8.8,5C8.8,7,7,8.8,5,8.8z M5.2,2.2H4v4h3.2V5h-2V2.2z"/>
	</g>
</g>
</svg>
